<svg xmlns="http://www.w3.org/2000/svg" width="44.982" height="27.624" viewBox="0 0 44.982 27.624">
  <g id="Group_826" data-name="Group 826" transform="translate(-618 -148.333)">
    <path id="Path_820" data-name="Path 820" d="M248.83,586.39a2.381,2.381,0,0,1-2.381,2.381h0a2.381,2.381,0,0,1-2.381-2.381v-7.409a2.381,2.381,0,0,1,2.381-2.381h0a2.381,2.381,0,0,1,2.381,2.381Z" transform="translate(380.389 -420.594)" fill="#262034"/>
    <path id="Path_821" data-name="Path 821" d="M274.155,572.207c0,1.666-1.035,3.017-2.311,3.017h0c-1.276,0-2.311-1.351-2.311-3.017v-21.59c0-1.666,1.035-3.017,2.311-3.017h0c1.276,0,2.311,1.351,2.311,3.017Z" transform="translate(361.661 -399.267)" fill="#262034"/>
    <path id="Path_822" data-name="Path 822" d="M302.43,583.248a2.381,2.381,0,0,1-2.381,2.381h0a2.381,2.381,0,0,1-2.381-2.381V572.981a2.381,2.381,0,0,1,2.381-2.381h0a2.381,2.381,0,0,1,2.381,2.381Z" transform="translate(340.972 -416.181)" fill="#262034"/>
    <path id="Path_823" data-name="Path 823" d="M328.03,578.021a2.381,2.381,0,0,1-2.381,2.381h0a2.381,2.381,0,0,1-2.381-2.381v-17.04a2.381,2.381,0,0,1,2.381-2.381h0a2.381,2.381,0,0,1,2.381,2.381Z" transform="translate(322.145 -407.356)" fill="#262034"/>
    <path id="Path_824" data-name="Path 824" d="M352.43,587.347c0,.949-1.066,1.718-2.381,1.718h0c-1.315,0-2.381-.769-2.381-1.718v-8.629c0-.949,1.066-1.718,2.381-1.718h0c1.315,0,2.381.769,2.381,1.718Z" transform="translate(304.202 -420.888)" fill="#262034"/>
    <path id="Path_825" data-name="Path 825" d="M376.43,592.222c0,.949-1.066,1.718-2.381,1.718h0c-1.315,0-2.381-.769-2.381-1.718V589.4c0-.949,1.066-1.718,2.381-1.718h0c1.315,0,2.381.769,2.381,1.718Z" transform="translate(286.552 -428.74)" fill="#262034"/>
    <path id="Path_826" data-name="Path 826" d="M224.43,591.557a2.381,2.381,0,0,1-2.381,2.381h0a2.381,2.381,0,0,1-2.381-2.381v-1.376a2.381,2.381,0,0,1,2.381-2.381h0a2.381,2.381,0,0,1,2.381,2.381Z" transform="translate(398.333 -428.83)" fill="#262034"/>
  </g>
</svg>
