<svg xmlns="http://www.w3.org/2000/svg" width="45" height="28" style=""><rect id="backgroundrect" width="100%" height="100%" x="0" y="0" fill="none" stroke="none" class="" style=""/><defs><style>.a,.b{fill:#fff;}.b{font-size:14px;font-family:SourceSansPro-Semibold, Source Sans Pro;font-weight:600;letter-spacing:0.5em;}</style></defs><g class="currentLayer" style=""><title>Layer 1</title><path class="a" d="M11.218000014238072,17.46299971580504 a2.3810000000000002,2.3810000000000002 0 0 1 -2.3810000000000002,2.3810000000000002 h0 a2.3810000000000002,2.3810000000000002 0 0 1 -2.3810000000000002,-2.3810000000000002 v-7.409 a2.3810000000000002,2.3810000000000002 0 0 1 2.3810000000000002,-2.3810000000000002 h0 a2.3810000000000002,2.3810000000000002 0 0 1 2.3810000000000002,2.3810000000000002 z" id="svg_2"/><path class="a" d="M17.81499937336889,24.606999380111688 c0,1.6660000000000006 -1.035,3.017 -2.311,3.017 h0 c-1.276,0 -2.311,-1.351 -2.311,-3.017 v-21.59 c0,-1.6660000000000006 1.035,-3.017 2.311,-3.017 h0 c1.276,0 2.311,1.351 2.311,3.017 z" id="svg_3"/><path class="a" d="M25.401000197343535,18.733999822616624 a2.3810000000000002,2.3810000000000002 0 0 1 -2.3810000000000002,2.3810000000000002 h0 a2.3810000000000002,2.3810000000000002 0 0 1 -2.3810000000000002,-2.3810000000000002 V8.466999822616572 a2.3810000000000002,2.3810000000000002 0 0 1 2.3810000000000002,-2.3810000000000002 h0 a2.3810000000000002,2.3810000000000002 0 0 1 2.3810000000000002,2.3810000000000002 z" id="svg_4"/><path class="a" d="M32.173996718339595,22.331999631881672 a2.3810000000000002,2.3810000000000002 0 0 1 -2.3810000000000002,2.3810000000000002 h0 a2.3810000000000002,2.3810000000000002 0 0 1 -2.3810000000000002,-2.3810000000000002 v-17.04 a2.3810000000000002,2.3810000000000002 0 0 1 2.3810000000000002,-2.3810000000000002 h0 a2.3810000000000002,2.3810000000000002 0 0 1 2.3810000000000002,2.3810000000000002 z" id="svg_5"/><path class="a" d="M38.63100355427713,18.125999090194682 c0,0.9490000000000003 -1.066,1.718 -2.3810000000000002,1.718 h0 c-1.315,0 -2.3810000000000002,-0.7690000000000003 -2.3810000000000002,-1.718 v-8.629 c0,-0.9490000000000003 1.066,-1.718 2.3810000000000002,-1.718 h0 c1.315,0 2.3810000000000002,0.7690000000000003 2.3810000000000002,1.718 z" id="svg_6"/><path class="a" d="M44.98100202839822,15.147998449325542 c0,0.9490000000000003 -1.066,1.718 -2.3810000000000002,1.718 h0 c-1.315,0 -2.3810000000000002,-0.7690000000000003 -2.3810000000000002,-1.718 V12.325998449325539 c0,-0.9490000000000003 1.066,-1.718 2.3810000000000002,-1.718 h0 c1.315,0 2.3810000000000002,0.7690000000000003 2.3810000000000002,1.718 z" id="svg_7"/><path class="a" d="M4.762000258378691,14.393999654769914 a2.3810000000000002,2.3810000000000002 0 0 1 -2.3810000000000002,2.3810000000000002 h0 a2.3810000000000002,2.3810000000000002 0 0 1 -2.3810000000000002,-2.3810000000000002 v-1.3760000000000001 a2.3810000000000002,2.3810000000000002 0 0 1 2.3810000000000002,-2.3810000000000002 h0 a2.3810000000000002,2.3810000000000002 0 0 1 2.3810000000000002,2.3810000000000002 z" id="svg_8"/></g></svg>